<svg width="48" height="48" viewBox="0 0 48 48" fill="none" xmlns="http://www.w3.org/2000/svg">
<circle cx="24" cy="24" r="24" fill="#F8F7F7"/>
<path d="M32.1491 28.0943C30.8892 27.0292 30.1667 25.4725 30.1667 23.8233V21.5C30.1667 18.5676 27.9884 16.14 25.1667 15.7334V14.8333C25.1667 14.3725 24.7933 14 24.3333 14C23.8734 14 23.5 14.3725 23.5 14.8333V15.7334C20.6774 16.14 18.5 18.5676 18.5 21.5V23.8233C18.5 25.4725 17.7775 27.0292 16.51 28.1008C16.35 28.2375 16.2215 28.4074 16.1335 28.5986C16.0454 28.7898 15.9999 28.9978 16 29.2083C16 30.0126 16.6541 30.6667 17.4583 30.6667H31.2083C32.0126 30.6667 32.6667 30.0126 32.6667 29.2083C32.6667 28.7816 32.4809 28.3784 32.1491 28.0943ZM24.3333 34C25.8425 34 27.105 32.9241 27.395 31.5H21.2716C21.5617 32.9241 22.8242 34 24.3333 34Z" fill="#7C7979"/>
</svg>
