<svg width="171" height="161" viewBox="0 0 171 161" fill="none" xmlns="http://www.w3.org/2000/svg">
<path d="M128.214 23.8438C130.501 21.128 130.167 17.0489 127.277 14.9856C114.302 5.72076 98.8212 0.48833 82.7876 0.0325106C64.605 -0.484402 46.7833 5.172 32.2268 16.0799C17.6703 26.9878 7.23715 42.5042 2.62762 60.1004C-1.98191 77.6966 -0.496095 96.3353 6.84294 112.979C14.182 129.623 26.9416 143.29 43.0423 151.754C59.1431 160.218 77.6359 162.98 95.5069 159.589C113.378 156.198 129.574 146.854 141.455 133.081C151.932 120.935 158.509 105.976 160.42 90.1472C160.845 86.6223 158.059 83.6246 154.511 83.4816V83.4816C150.963 83.3387 148.003 86.1068 147.524 89.6249C145.765 102.548 140.298 114.737 131.719 124.682C121.736 136.256 108.127 144.107 93.11 146.957C78.0933 149.806 62.5543 147.485 49.0252 140.373C35.4961 133.261 24.7745 121.777 18.6077 107.791C12.4408 93.8061 11.1923 78.1444 15.0656 63.3587C18.9389 48.573 27.7056 35.535 39.9371 26.3693C52.1686 17.2036 67.1438 12.4507 82.4222 12.885C95.5505 13.2582 108.238 17.4426 118.966 24.8594C121.886 26.8785 125.927 26.5596 128.214 23.8438V23.8438Z" fill="#6055D8"/>
<path d="M160.999 25.127L82.3026 104.231L46.5312 68.2746" stroke="#6055D8" stroke-width="20" stroke-linecap="round" stroke-linejoin="round"/>
</svg>
